<mxfile host="app.diagrams.net" agent="Mozilla/5.0 (Windows NT 10.0; Win64; x64) AppleWebKit/537.36 (KHTML, like Gecko) Chrome/138.0.0.0 Safari/537.36" version="28.0.5">
  <diagram name="Page-1" id="lDX-ryGHJR2sUXdsz0qi">
    <mxGraphModel dx="426" dy="430" grid="1" gridSize="10" guides="1" tooltips="1" connect="1" arrows="1" fold="1" page="1" pageScale="1" pageWidth="850" pageHeight="1100" math="0" shadow="0">
      <root>
        <mxCell id="0" />
        <mxCell id="1" parent="0" />
        <mxCell id="63RZb1S6IXjx1MF-2oGR-3" style="edgeStyle=orthogonalEdgeStyle;rounded=0;orthogonalLoop=1;jettySize=auto;html=1;entryX=0.5;entryY=0;entryDx=0;entryDy=0;" edge="1" parent="1" source="63RZb1S6IXjx1MF-2oGR-1" target="63RZb1S6IXjx1MF-2oGR-2">
          <mxGeometry relative="1" as="geometry" />
        </mxCell>
        <mxCell id="63RZb1S6IXjx1MF-2oGR-1" value="&lt;font style=&quot;font-size: 18px;&quot;&gt;1&lt;/font&gt;" style="ellipse;whiteSpace=wrap;html=1;aspect=fixed;" vertex="1" parent="1">
          <mxGeometry x="320" width="80" height="80" as="geometry" />
        </mxCell>
        <mxCell id="63RZb1S6IXjx1MF-2oGR-5" style="rounded=0;orthogonalLoop=1;jettySize=auto;html=1;" edge="1" parent="1" source="63RZb1S6IXjx1MF-2oGR-2" target="63RZb1S6IXjx1MF-2oGR-4">
          <mxGeometry relative="1" as="geometry" />
        </mxCell>
        <mxCell id="63RZb1S6IXjx1MF-2oGR-7" style="rounded=0;orthogonalLoop=1;jettySize=auto;html=1;" edge="1" parent="1" source="63RZb1S6IXjx1MF-2oGR-2" target="63RZb1S6IXjx1MF-2oGR-6">
          <mxGeometry relative="1" as="geometry" />
        </mxCell>
        <mxCell id="63RZb1S6IXjx1MF-2oGR-2" value="&lt;font style=&quot;font-size: 18px;&quot;&gt;2&lt;/font&gt;" style="ellipse;whiteSpace=wrap;html=1;aspect=fixed;" vertex="1" parent="1">
          <mxGeometry x="320" y="120" width="80" height="80" as="geometry" />
        </mxCell>
        <mxCell id="63RZb1S6IXjx1MF-2oGR-14" style="edgeStyle=orthogonalEdgeStyle;rounded=0;orthogonalLoop=1;jettySize=auto;html=1;" edge="1" parent="1" source="63RZb1S6IXjx1MF-2oGR-4">
          <mxGeometry relative="1" as="geometry">
            <mxPoint x="360" y="360" as="targetPoint" />
          </mxGeometry>
        </mxCell>
        <mxCell id="63RZb1S6IXjx1MF-2oGR-4" value="&lt;font style=&quot;font-size: 18px;&quot;&gt;3&lt;/font&gt;" style="ellipse;whiteSpace=wrap;html=1;aspect=fixed;" vertex="1" parent="1">
          <mxGeometry x="200" y="240" width="80" height="80" as="geometry" />
        </mxCell>
        <mxCell id="63RZb1S6IXjx1MF-2oGR-13" style="edgeStyle=orthogonalEdgeStyle;rounded=0;orthogonalLoop=1;jettySize=auto;html=1;entryX=0.5;entryY=0;entryDx=0;entryDy=0;" edge="1" parent="1" source="63RZb1S6IXjx1MF-2oGR-6" target="63RZb1S6IXjx1MF-2oGR-8">
          <mxGeometry relative="1" as="geometry" />
        </mxCell>
        <mxCell id="63RZb1S6IXjx1MF-2oGR-6" value="&lt;font style=&quot;font-size: 18px;&quot;&gt;3&lt;/font&gt;" style="ellipse;whiteSpace=wrap;html=1;aspect=fixed;" vertex="1" parent="1">
          <mxGeometry x="440" y="240" width="80" height="80" as="geometry" />
        </mxCell>
        <mxCell id="63RZb1S6IXjx1MF-2oGR-12" style="edgeStyle=orthogonalEdgeStyle;rounded=0;orthogonalLoop=1;jettySize=auto;html=1;entryX=0.5;entryY=0;entryDx=0;entryDy=0;" edge="1" parent="1" source="63RZb1S6IXjx1MF-2oGR-8" target="63RZb1S6IXjx1MF-2oGR-11">
          <mxGeometry relative="1" as="geometry" />
        </mxCell>
        <mxCell id="63RZb1S6IXjx1MF-2oGR-8" value="&lt;font style=&quot;font-size: 18px;&quot;&gt;4&lt;/font&gt;" style="ellipse;whiteSpace=wrap;html=1;aspect=fixed;" vertex="1" parent="1">
          <mxGeometry x="320" y="360" width="80" height="80" as="geometry" />
        </mxCell>
        <mxCell id="63RZb1S6IXjx1MF-2oGR-16" style="edgeStyle=orthogonalEdgeStyle;rounded=0;orthogonalLoop=1;jettySize=auto;html=1;entryX=0.5;entryY=0;entryDx=0;entryDy=0;" edge="1" parent="1" source="63RZb1S6IXjx1MF-2oGR-11" target="63RZb1S6IXjx1MF-2oGR-15">
          <mxGeometry relative="1" as="geometry" />
        </mxCell>
        <mxCell id="63RZb1S6IXjx1MF-2oGR-11" value="&lt;font style=&quot;font-size: 18px;&quot;&gt;5&lt;/font&gt;" style="ellipse;whiteSpace=wrap;html=1;aspect=fixed;" vertex="1" parent="1">
          <mxGeometry x="320" y="480" width="80" height="80" as="geometry" />
        </mxCell>
        <mxCell id="63RZb1S6IXjx1MF-2oGR-18" style="rounded=0;orthogonalLoop=1;jettySize=auto;html=1;" edge="1" parent="1" source="63RZb1S6IXjx1MF-2oGR-15" target="63RZb1S6IXjx1MF-2oGR-17">
          <mxGeometry relative="1" as="geometry" />
        </mxCell>
        <mxCell id="63RZb1S6IXjx1MF-2oGR-22" style="edgeStyle=orthogonalEdgeStyle;rounded=0;orthogonalLoop=1;jettySize=auto;html=1;entryX=0.5;entryY=0;entryDx=0;entryDy=0;" edge="1" parent="1" source="63RZb1S6IXjx1MF-2oGR-15" target="63RZb1S6IXjx1MF-2oGR-21">
          <mxGeometry relative="1" as="geometry" />
        </mxCell>
        <mxCell id="63RZb1S6IXjx1MF-2oGR-15" value="&lt;font style=&quot;font-size: 18px;&quot;&gt;6&lt;/font&gt;" style="ellipse;whiteSpace=wrap;html=1;aspect=fixed;" vertex="1" parent="1">
          <mxGeometry x="320" y="600" width="80" height="80" as="geometry" />
        </mxCell>
        <mxCell id="63RZb1S6IXjx1MF-2oGR-20" style="edgeStyle=orthogonalEdgeStyle;rounded=0;orthogonalLoop=1;jettySize=auto;html=1;entryX=0.5;entryY=0;entryDx=0;entryDy=0;" edge="1" parent="1" source="63RZb1S6IXjx1MF-2oGR-17" target="63RZb1S6IXjx1MF-2oGR-19">
          <mxGeometry relative="1" as="geometry" />
        </mxCell>
        <mxCell id="63RZb1S6IXjx1MF-2oGR-17" value="&lt;font style=&quot;font-size: 18px;&quot;&gt;7&lt;/font&gt;" style="ellipse;whiteSpace=wrap;html=1;aspect=fixed;" vertex="1" parent="1">
          <mxGeometry x="200" y="720" width="80" height="80" as="geometry" />
        </mxCell>
        <mxCell id="63RZb1S6IXjx1MF-2oGR-19" value="&lt;font style=&quot;font-size: 18px;&quot;&gt;8&lt;/font&gt;" style="ellipse;whiteSpace=wrap;html=1;aspect=fixed;" vertex="1" parent="1">
          <mxGeometry x="200" y="840" width="80" height="80" as="geometry" />
        </mxCell>
        <mxCell id="63RZb1S6IXjx1MF-2oGR-24" style="edgeStyle=orthogonalEdgeStyle;rounded=0;orthogonalLoop=1;jettySize=auto;html=1;entryX=0.5;entryY=0;entryDx=0;entryDy=0;" edge="1" parent="1" source="63RZb1S6IXjx1MF-2oGR-21" target="63RZb1S6IXjx1MF-2oGR-23">
          <mxGeometry relative="1" as="geometry" />
        </mxCell>
        <mxCell id="63RZb1S6IXjx1MF-2oGR-21" value="&lt;font style=&quot;font-size: 18px;&quot;&gt;9&lt;/font&gt;" style="ellipse;whiteSpace=wrap;html=1;aspect=fixed;" vertex="1" parent="1">
          <mxGeometry x="320" y="840" width="80" height="80" as="geometry" />
        </mxCell>
        <mxCell id="63RZb1S6IXjx1MF-2oGR-23" value="&lt;font style=&quot;font-size: 18px;&quot;&gt;10&lt;/font&gt;" style="ellipse;whiteSpace=wrap;html=1;aspect=fixed;" vertex="1" parent="1">
          <mxGeometry x="320" y="960" width="80" height="80" as="geometry" />
        </mxCell>
      </root>
    </mxGraphModel>
  </diagram>
</mxfile>
